<mxfile host="app.diagrams.net" modified="2022-01-09T07:52:22.087Z" agent="5.0 (Windows NT 10.0; Win64; x64) AppleWebKit/537.36 (KHTML, like Gecko) Chrome/97.0.4692.71 Safari/537.36" etag="aUmV_mswDh6_ou2jgu5t" version="16.2.4" type="github">
  <diagram id="C5RBs43oDa-KdzZeNtuy" name="Page-1">
    <mxGraphModel dx="1447" dy="803" grid="1" gridSize="10" guides="1" tooltips="1" connect="1" arrows="1" fold="1" page="1" pageScale="1" pageWidth="827" pageHeight="1169" math="0" shadow="0">
      <root>
        <mxCell id="WIyWlLk6GJQsqaUBKTNV-0" />
        <mxCell id="WIyWlLk6GJQsqaUBKTNV-1" parent="WIyWlLk6GJQsqaUBKTNV-0" />
        <mxCell id="o2SiBJOCBBynx09QVOnq-0" value="&lt;font style=&quot;font-size: 18px&quot;&gt;Start&lt;/font&gt;" style="ellipse;whiteSpace=wrap;html=1;" vertex="1" parent="WIyWlLk6GJQsqaUBKTNV-1">
          <mxGeometry x="340" y="80" width="120" height="80" as="geometry" />
        </mxCell>
        <mxCell id="o2SiBJOCBBynx09QVOnq-1" value="" style="shape=flexArrow;endArrow=classic;html=1;rounded=0;fontSize=18;width=12;endSize=8;" edge="1" parent="WIyWlLk6GJQsqaUBKTNV-1">
          <mxGeometry width="50" height="50" relative="1" as="geometry">
            <mxPoint x="399.5" y="160" as="sourcePoint" />
            <mxPoint x="399.5" y="230" as="targetPoint" />
          </mxGeometry>
        </mxCell>
        <mxCell id="o2SiBJOCBBynx09QVOnq-2" value="Dataset" style="shape=parallelogram;perimeter=parallelogramPerimeter;whiteSpace=wrap;html=1;fixedSize=1;fontSize=18;" vertex="1" parent="WIyWlLk6GJQsqaUBKTNV-1">
          <mxGeometry x="340" y="230" width="120" height="60" as="geometry" />
        </mxCell>
        <mxCell id="o2SiBJOCBBynx09QVOnq-5" value="" style="edgeStyle=segmentEdgeStyle;endArrow=classic;html=1;fontSize=18;rounded=0;shape=flexArrow;" edge="1" parent="WIyWlLk6GJQsqaUBKTNV-1">
          <mxGeometry width="50" height="50" relative="1" as="geometry">
            <mxPoint x="350" y="260" as="sourcePoint" />
            <mxPoint x="250" y="320" as="targetPoint" />
          </mxGeometry>
        </mxCell>
        <mxCell id="o2SiBJOCBBynx09QVOnq-6" value="&lt;font style=&quot;font-size: 12px&quot;&gt;Data preprocessing&lt;br&gt;(Tokenization, Lowercase, remove alphabets, remove stop words, lemmatization)&lt;br&gt;&lt;/font&gt;" style="rounded=0;whiteSpace=wrap;html=1;fontSize=18;" vertex="1" parent="WIyWlLk6GJQsqaUBKTNV-1">
          <mxGeometry x="160" y="320" width="180" height="90" as="geometry" />
        </mxCell>
        <mxCell id="o2SiBJOCBBynx09QVOnq-8" value="" style="shape=flexArrow;endArrow=classic;html=1;rounded=0;fontSize=18;width=12;endSize=8;" edge="1" parent="WIyWlLk6GJQsqaUBKTNV-1">
          <mxGeometry width="50" height="50" relative="1" as="geometry">
            <mxPoint x="340" y="364.40999999999997" as="sourcePoint" />
            <mxPoint x="480" y="364" as="targetPoint" />
          </mxGeometry>
        </mxCell>
        <mxCell id="o2SiBJOCBBynx09QVOnq-9" value="&lt;font&gt;&lt;font style=&quot;font-size: 16px&quot;&gt;Lexicon-based analysis&lt;/font&gt;&lt;br&gt;&lt;/font&gt;" style="rounded=0;whiteSpace=wrap;html=1;fontSize=18;" vertex="1" parent="WIyWlLk6GJQsqaUBKTNV-1">
          <mxGeometry x="480" y="345" width="180" height="40" as="geometry" />
        </mxCell>
        <mxCell id="o2SiBJOCBBynx09QVOnq-10" value="&lt;font&gt;&lt;font style=&quot;font-size: 16px&quot;&gt;Sentiment Classification&lt;br&gt;&lt;/font&gt;(Positive, Negative, Neutral)&lt;br&gt;&lt;/font&gt;" style="rounded=0;whiteSpace=wrap;html=1;fontSize=18;" vertex="1" parent="WIyWlLk6GJQsqaUBKTNV-1">
          <mxGeometry x="455" y="455" width="230" height="60" as="geometry" />
        </mxCell>
        <mxCell id="o2SiBJOCBBynx09QVOnq-11" value="" style="shape=flexArrow;endArrow=classic;html=1;rounded=0;fontSize=18;width=12;endSize=8;" edge="1" parent="WIyWlLk6GJQsqaUBKTNV-1">
          <mxGeometry width="50" height="50" relative="1" as="geometry">
            <mxPoint x="569.5799999999999" y="384.9999999999999" as="sourcePoint" />
            <mxPoint x="569.5799999999999" y="454.9999999999999" as="targetPoint" />
          </mxGeometry>
        </mxCell>
        <mxCell id="o2SiBJOCBBynx09QVOnq-12" value="" style="shape=flexArrow;endArrow=classic;html=1;rounded=0;fontSize=18;width=12;endSize=8;entryX=1.003;entryY=0.369;entryDx=0;entryDy=0;entryPerimeter=0;" edge="1" parent="WIyWlLk6GJQsqaUBKTNV-1" target="o2SiBJOCBBynx09QVOnq-13">
          <mxGeometry width="50" height="50" relative="1" as="geometry">
            <mxPoint x="455" y="490" as="sourcePoint" />
            <mxPoint x="350" y="490" as="targetPoint" />
          </mxGeometry>
        </mxCell>
        <mxCell id="o2SiBJOCBBynx09QVOnq-13" value="Train-Test Split" style="rounded=0;whiteSpace=wrap;html=1;fontSize=16;" vertex="1" parent="WIyWlLk6GJQsqaUBKTNV-1">
          <mxGeometry x="180" y="470" width="160" height="60" as="geometry" />
        </mxCell>
        <mxCell id="o2SiBJOCBBynx09QVOnq-14" value="" style="shape=flexArrow;endArrow=classic;html=1;rounded=0;fontSize=18;width=12;endSize=8;entryX=1.003;entryY=0.369;entryDx=0;entryDy=0;entryPerimeter=0;" edge="1" parent="WIyWlLk6GJQsqaUBKTNV-1">
          <mxGeometry width="50" height="50" relative="1" as="geometry">
            <mxPoint x="259.88" y="530" as="sourcePoint" />
            <mxPoint x="260.12" y="592.14" as="targetPoint" />
          </mxGeometry>
        </mxCell>
        <mxCell id="o2SiBJOCBBynx09QVOnq-15" value="Train Dataset" style="shape=cylinder3;whiteSpace=wrap;html=1;boundedLbl=1;backgroundOutline=1;size=15;fontSize=16;" vertex="1" parent="WIyWlLk6GJQsqaUBKTNV-1">
          <mxGeometry x="230" y="590" width="60" height="90" as="geometry" />
        </mxCell>
        <mxCell id="o2SiBJOCBBynx09QVOnq-16" value="" style="shape=flexArrow;endArrow=classic;html=1;rounded=0;fontSize=18;width=12;endSize=8;" edge="1" parent="WIyWlLk6GJQsqaUBKTNV-1">
          <mxGeometry width="50" height="50" relative="1" as="geometry">
            <mxPoint x="290" y="634.6999999999998" as="sourcePoint" />
            <mxPoint x="460" y="634" as="targetPoint" />
          </mxGeometry>
        </mxCell>
        <mxCell id="o2SiBJOCBBynx09QVOnq-17" value="&lt;font&gt;&lt;span style=&quot;font-size: 16px&quot;&gt;Training Model&lt;/span&gt;&lt;br&gt;&lt;/font&gt;" style="rounded=0;whiteSpace=wrap;html=1;fontSize=18;" vertex="1" parent="WIyWlLk6GJQsqaUBKTNV-1">
          <mxGeometry x="460" y="605" width="230" height="60" as="geometry" />
        </mxCell>
        <mxCell id="o2SiBJOCBBynx09QVOnq-19" value="" style="shape=flexArrow;endArrow=classic;html=1;rounded=0;fontSize=18;width=12;endSize=8;" edge="1" parent="WIyWlLk6GJQsqaUBKTNV-1">
          <mxGeometry width="50" height="50" relative="1" as="geometry">
            <mxPoint x="574.29" y="665" as="sourcePoint" />
            <mxPoint x="574.29" y="735" as="targetPoint" />
          </mxGeometry>
        </mxCell>
        <mxCell id="o2SiBJOCBBynx09QVOnq-20" value="&lt;font&gt;&lt;span style=&quot;font-size: 16px&quot;&gt;Model Prediction&lt;/span&gt;&lt;br&gt;&lt;/font&gt;" style="rounded=0;whiteSpace=wrap;html=1;fontSize=18;" vertex="1" parent="WIyWlLk6GJQsqaUBKTNV-1">
          <mxGeometry x="460" y="736" width="230" height="60" as="geometry" />
        </mxCell>
        <mxCell id="o2SiBJOCBBynx09QVOnq-21" value="Test Dataset" style="shape=cylinder3;whiteSpace=wrap;html=1;boundedLbl=1;backgroundOutline=1;size=15;fontSize=16;" vertex="1" parent="WIyWlLk6GJQsqaUBKTNV-1">
          <mxGeometry x="230" y="721" width="60" height="90" as="geometry" />
        </mxCell>
        <mxCell id="o2SiBJOCBBynx09QVOnq-22" value="" style="shape=flexArrow;endArrow=classic;html=1;rounded=0;fontSize=18;width=12;endSize=8;" edge="1" parent="WIyWlLk6GJQsqaUBKTNV-1">
          <mxGeometry width="50" height="50" relative="1" as="geometry">
            <mxPoint x="574.5799999999999" y="796" as="sourcePoint" />
            <mxPoint x="574.5799999999999" y="866" as="targetPoint" />
          </mxGeometry>
        </mxCell>
        <mxCell id="o2SiBJOCBBynx09QVOnq-23" value="&lt;font&gt;&lt;span style=&quot;font-size: 16px&quot;&gt;Model Performance Evaluation&lt;/span&gt;&lt;br&gt;&lt;/font&gt;" style="rounded=0;whiteSpace=wrap;html=1;fontSize=18;" vertex="1" parent="WIyWlLk6GJQsqaUBKTNV-1">
          <mxGeometry x="460" y="867" width="230" height="60" as="geometry" />
        </mxCell>
        <mxCell id="o2SiBJOCBBynx09QVOnq-24" value="" style="shape=flexArrow;endArrow=classic;html=1;rounded=0;fontSize=18;width=12;endSize=8;" edge="1" parent="WIyWlLk6GJQsqaUBKTNV-1">
          <mxGeometry width="50" height="50" relative="1" as="geometry">
            <mxPoint x="459.9999999999999" y="896.5" as="sourcePoint" />
            <mxPoint x="380" y="896.5" as="targetPoint" />
          </mxGeometry>
        </mxCell>
        <mxCell id="o2SiBJOCBBynx09QVOnq-25" value="&lt;font&gt;&lt;span style=&quot;font-size: 16px&quot;&gt;Results&lt;br&gt;&lt;/span&gt;(Confusion matrix, ROC Curve)&lt;br&gt;&lt;/font&gt;" style="rounded=0;whiteSpace=wrap;html=1;fontSize=18;" vertex="1" parent="WIyWlLk6GJQsqaUBKTNV-1">
          <mxGeometry x="170" y="867" width="210" height="60" as="geometry" />
        </mxCell>
        <mxCell id="o2SiBJOCBBynx09QVOnq-26" value="" style="shape=flexArrow;endArrow=classic;html=1;rounded=0;fontSize=18;width=12;endSize=8;" edge="1" parent="WIyWlLk6GJQsqaUBKTNV-1">
          <mxGeometry width="50" height="50" relative="1" as="geometry">
            <mxPoint x="259.49999999999994" y="927" as="sourcePoint" />
            <mxPoint x="259.49999999999994" y="997" as="targetPoint" />
          </mxGeometry>
        </mxCell>
        <mxCell id="o2SiBJOCBBynx09QVOnq-27" value="&lt;font style=&quot;font-size: 18px&quot;&gt;End&lt;/font&gt;" style="ellipse;whiteSpace=wrap;html=1;" vertex="1" parent="WIyWlLk6GJQsqaUBKTNV-1">
          <mxGeometry x="200" y="998" width="120" height="80" as="geometry" />
        </mxCell>
      </root>
    </mxGraphModel>
  </diagram>
</mxfile>
